<?xml version="1.0" encoding="UTF-8" standalone="no"?>
<!DOCTYPE svg PUBLIC "-//W3C//DTD SVG 1.1//EN"
 "http://www.w3.org/Graphics/SVG/1.1/DTD/svg11.dtd">
<!-- Generated by graphviz version 2.43.0 (0)
 -->
<!-- Title: G Pages: 1 -->
<svg width="544pt" height="627pt"
 viewBox="0.00 0.00 408.00 470.00" xmlns="http://www.w3.org/2000/svg" xmlns:xlink="http://www.w3.org/1999/xlink">
<g id="graph0" class="graph" transform="scale(0.75 0.75) rotate(0) translate(4 466)">
<title>G</title>
<polygon fill="white" stroke="transparent" points="-4,4 -4,-466 404,-466 404,4 -4,4"/>
<!-- 140163914982448 -->
<g id="node1" class="node">
<title>140163914982448</title>
<polygon fill="none" stroke="black" points="57.5,-415.5 57.5,-461.5 342.5,-461.5 342.5,-415.5 57.5,-415.5"/>
<text text-anchor="middle" x="105" y="-434.8" font-family="Times,serif" font-size="14.00">InputLayer</text>
<polyline fill="none" stroke="black" points="152.5,-415.5 152.5,-461.5 "/>
<text text-anchor="middle" x="186.5" y="-446.3" font-family="Times,serif" font-size="14.00">input:</text>
<polyline fill="none" stroke="black" points="152.5,-438.5 220.5,-438.5 "/>
<text text-anchor="middle" x="186.5" y="-423.3" font-family="Times,serif" font-size="14.00">output:</text>
<polyline fill="none" stroke="black" points="220.5,-415.5 220.5,-461.5 "/>
<text text-anchor="middle" x="281.5" y="-446.3" font-family="Times,serif" font-size="14.00">[(None, None)]</text>
<polyline fill="none" stroke="black" points="220.5,-438.5 342.5,-438.5 "/>
<text text-anchor="middle" x="281.5" y="-423.3" font-family="Times,serif" font-size="14.00">[(None, None)]</text>
</g>
<!-- 140163914982400 -->
<g id="node2" class="node">
<title>140163914982400</title>
<polygon fill="none" stroke="black" points="48,-332.5 48,-378.5 352,-378.5 352,-332.5 48,-332.5"/>
<text text-anchor="middle" x="97" y="-351.8" font-family="Times,serif" font-size="14.00">Embedding</text>
<polyline fill="none" stroke="black" points="146,-332.5 146,-378.5 "/>
<text text-anchor="middle" x="180" y="-363.3" font-family="Times,serif" font-size="14.00">input:</text>
<polyline fill="none" stroke="black" points="146,-355.5 214,-355.5 "/>
<text text-anchor="middle" x="180" y="-340.3" font-family="Times,serif" font-size="14.00">output:</text>
<polyline fill="none" stroke="black" points="214,-332.5 214,-378.5 "/>
<text text-anchor="middle" x="283" y="-363.3" font-family="Times,serif" font-size="14.00">(None, None)</text>
<polyline fill="none" stroke="black" points="214,-355.5 352,-355.5 "/>
<text text-anchor="middle" x="283" y="-340.3" font-family="Times,serif" font-size="14.00">(None, None, 64)</text>
</g>
<!-- 140163914982448&#45;&gt;140163914982400 -->
<g id="edge1" class="edge">
<title>140163914982448&#45;&gt;140163914982400</title>
<path fill="none" stroke="black" d="M200,-415.37C200,-407.15 200,-397.66 200,-388.73"/>
<polygon fill="black" stroke="black" points="203.5,-388.61 200,-378.61 196.5,-388.61 203.5,-388.61"/>
</g>
<!-- 140163914982496 -->
<g id="node3" class="node">
<title>140163914982496</title>
<polygon fill="none" stroke="black" points="60.5,-249.5 60.5,-295.5 339.5,-295.5 339.5,-249.5 60.5,-249.5"/>
<text text-anchor="middle" x="97" y="-268.8" font-family="Times,serif" font-size="14.00">Conv1D</text>
<polyline fill="none" stroke="black" points="133.5,-249.5 133.5,-295.5 "/>
<text text-anchor="middle" x="167.5" y="-280.3" font-family="Times,serif" font-size="14.00">input:</text>
<polyline fill="none" stroke="black" points="133.5,-272.5 201.5,-272.5 "/>
<text text-anchor="middle" x="167.5" y="-257.3" font-family="Times,serif" font-size="14.00">output:</text>
<polyline fill="none" stroke="black" points="201.5,-249.5 201.5,-295.5 "/>
<text text-anchor="middle" x="270.5" y="-280.3" font-family="Times,serif" font-size="14.00">(None, None, 64)</text>
<polyline fill="none" stroke="black" points="201.5,-272.5 339.5,-272.5 "/>
<text text-anchor="middle" x="270.5" y="-257.3" font-family="Times,serif" font-size="14.00">(None, None, 64)</text>
</g>
<!-- 140163914982400&#45;&gt;140163914982496 -->
<g id="edge2" class="edge">
<title>140163914982400&#45;&gt;140163914982496</title>
<path fill="none" stroke="black" d="M200,-332.37C200,-324.15 200,-314.66 200,-305.73"/>
<polygon fill="black" stroke="black" points="203.5,-305.61 200,-295.61 196.5,-305.61 203.5,-305.61"/>
</g>
<!-- 140163914984032 -->
<g id="node4" class="node">
<title>140163914984032</title>
<polygon fill="none" stroke="black" points="0,-166.5 0,-212.5 400,-212.5 400,-166.5 0,-166.5"/>
<text text-anchor="middle" x="97" y="-185.8" font-family="Times,serif" font-size="14.00">GlobalAveragePooling1D</text>
<polyline fill="none" stroke="black" points="194,-166.5 194,-212.5 "/>
<text text-anchor="middle" x="228" y="-197.3" font-family="Times,serif" font-size="14.00">input:</text>
<polyline fill="none" stroke="black" points="194,-189.5 262,-189.5 "/>
<text text-anchor="middle" x="228" y="-174.3" font-family="Times,serif" font-size="14.00">output:</text>
<polyline fill="none" stroke="black" points="262,-166.5 262,-212.5 "/>
<text text-anchor="middle" x="331" y="-197.3" font-family="Times,serif" font-size="14.00">(None, None, 64)</text>
<polyline fill="none" stroke="black" points="262,-189.5 400,-189.5 "/>
<text text-anchor="middle" x="331" y="-174.3" font-family="Times,serif" font-size="14.00">(None, 64)</text>
</g>
<!-- 140163914982496&#45;&gt;140163914984032 -->
<g id="edge3" class="edge">
<title>140163914982496&#45;&gt;140163914984032</title>
<path fill="none" stroke="black" d="M200,-249.37C200,-241.15 200,-231.66 200,-222.73"/>
<polygon fill="black" stroke="black" points="203.5,-222.61 200,-212.61 196.5,-222.61 203.5,-222.61"/>
</g>
<!-- 140163914984464 -->
<g id="node5" class="node">
<title>140163914984464</title>
<polygon fill="none" stroke="black" points="82.5,-83.5 82.5,-129.5 317.5,-129.5 317.5,-83.5 82.5,-83.5"/>
<text text-anchor="middle" x="120" y="-102.8" font-family="Times,serif" font-size="14.00">Dropout</text>
<polyline fill="none" stroke="black" points="157.5,-83.5 157.5,-129.5 "/>
<text text-anchor="middle" x="191.5" y="-114.3" font-family="Times,serif" font-size="14.00">input:</text>
<polyline fill="none" stroke="black" points="157.5,-106.5 225.5,-106.5 "/>
<text text-anchor="middle" x="191.5" y="-91.3" font-family="Times,serif" font-size="14.00">output:</text>
<polyline fill="none" stroke="black" points="225.5,-83.5 225.5,-129.5 "/>
<text text-anchor="middle" x="271.5" y="-114.3" font-family="Times,serif" font-size="14.00">(None, 64)</text>
<polyline fill="none" stroke="black" points="225.5,-106.5 317.5,-106.5 "/>
<text text-anchor="middle" x="271.5" y="-91.3" font-family="Times,serif" font-size="14.00">(None, 64)</text>
</g>
<!-- 140163914984032&#45;&gt;140163914984464 -->
<g id="edge4" class="edge">
<title>140163914984032&#45;&gt;140163914984464</title>
<path fill="none" stroke="black" d="M200,-166.37C200,-158.15 200,-148.66 200,-139.73"/>
<polygon fill="black" stroke="black" points="203.5,-139.61 200,-129.61 196.5,-139.61 203.5,-139.61"/>
</g>
<!-- 140163915036176 -->
<g id="node6" class="node">
<title>140163915036176</title>
<polygon fill="none" stroke="black" points="89.5,-0.5 89.5,-46.5 310.5,-46.5 310.5,-0.5 89.5,-0.5"/>
<text text-anchor="middle" x="120" y="-19.8" font-family="Times,serif" font-size="14.00">Dense</text>
<polyline fill="none" stroke="black" points="150.5,-0.5 150.5,-46.5 "/>
<text text-anchor="middle" x="184.5" y="-31.3" font-family="Times,serif" font-size="14.00">input:</text>
<polyline fill="none" stroke="black" points="150.5,-23.5 218.5,-23.5 "/>
<text text-anchor="middle" x="184.5" y="-8.3" font-family="Times,serif" font-size="14.00">output:</text>
<polyline fill="none" stroke="black" points="218.5,-0.5 218.5,-46.5 "/>
<text text-anchor="middle" x="264.5" y="-31.3" font-family="Times,serif" font-size="14.00">(None, 64)</text>
<polyline fill="none" stroke="black" points="218.5,-23.5 310.5,-23.5 "/>
<text text-anchor="middle" x="264.5" y="-8.3" font-family="Times,serif" font-size="14.00">(None, 10)</text>
</g>
<!-- 140163914984464&#45;&gt;140163915036176 -->
<g id="edge5" class="edge">
<title>140163914984464&#45;&gt;140163915036176</title>
<path fill="none" stroke="black" d="M200,-83.37C200,-75.15 200,-65.66 200,-56.73"/>
<polygon fill="black" stroke="black" points="203.5,-56.61 200,-46.61 196.5,-56.61 203.5,-56.61"/>
</g>
</g>
</svg>
