<?xml version="1.0" encoding="UTF-8" standalone="no"?>
<!DOCTYPE svg PUBLIC "-//W3C//DTD SVG 1.1//EN"
 "http://www.w3.org/Graphics/SVG/1.1/DTD/svg11.dtd">
<!-- Generated by graphviz version 2.43.0 (0)
 -->
<!-- Title: G Pages: 1 -->
<svg width="655pt" height="959pt"
 viewBox="0.00 0.00 491.00 719.00" xmlns="http://www.w3.org/2000/svg" xmlns:xlink="http://www.w3.org/1999/xlink">
<g id="graph0" class="graph" transform="scale(0.75 0.75) rotate(0) translate(4 715)">
<title>G</title>
<polygon fill="white" stroke="transparent" points="-4,4 -4,-715 487,-715 487,4 -4,4"/>
<!-- 140168330415504 -->
<g id="node1" class="node">
<title>140168330415504</title>
<polygon fill="none" stroke="black" points="131.5,-664.5 131.5,-710.5 443.5,-710.5 443.5,-664.5 131.5,-664.5"/>
<text text-anchor="middle" x="179" y="-683.8" font-family="Times,serif" font-size="14.00">InputLayer</text>
<polyline fill="none" stroke="black" points="226.5,-664.5 226.5,-710.5 "/>
<text text-anchor="middle" x="260.5" y="-695.3" font-family="Times,serif" font-size="14.00">input:</text>
<polyline fill="none" stroke="black" points="226.5,-687.5 294.5,-687.5 "/>
<text text-anchor="middle" x="260.5" y="-672.3" font-family="Times,serif" font-size="14.00">output:</text>
<polyline fill="none" stroke="black" points="294.5,-664.5 294.5,-710.5 "/>
<text text-anchor="middle" x="369" y="-695.3" font-family="Times,serif" font-size="14.00">[(None, None, 64)]</text>
<polyline fill="none" stroke="black" points="294.5,-687.5 443.5,-687.5 "/>
<text text-anchor="middle" x="369" y="-672.3" font-family="Times,serif" font-size="14.00">[(None, None, 64)]</text>
</g>
<!-- 140168330498640 -->
<g id="node2" class="node">
<title>140168330498640</title>
<polygon fill="none" stroke="black" points="0,-581.5 0,-627.5 365,-627.5 365,-581.5 0,-581.5"/>
<text text-anchor="middle" x="79.5" y="-600.8" font-family="Times,serif" font-size="14.00">MultiHeadAttention</text>
<polyline fill="none" stroke="black" points="159,-581.5 159,-627.5 "/>
<text text-anchor="middle" x="193" y="-612.3" font-family="Times,serif" font-size="14.00">input:</text>
<polyline fill="none" stroke="black" points="159,-604.5 227,-604.5 "/>
<text text-anchor="middle" x="193" y="-589.3" font-family="Times,serif" font-size="14.00">output:</text>
<polyline fill="none" stroke="black" points="227,-581.5 227,-627.5 "/>
<text text-anchor="middle" x="296" y="-612.3" font-family="Times,serif" font-size="14.00">(None, None, 64)</text>
<polyline fill="none" stroke="black" points="227,-604.5 365,-604.5 "/>
<text text-anchor="middle" x="296" y="-589.3" font-family="Times,serif" font-size="14.00">(None, None, 64)</text>
</g>
<!-- 140168330415504&#45;&gt;140168330498640 -->
<g id="edge1" class="edge">
<title>140168330415504&#45;&gt;140168330498640</title>
<path fill="none" stroke="black" d="M258.81,-664.37C246.65,-654.99 232.34,-643.95 219.41,-633.98"/>
<polygon fill="black" stroke="black" points="221.21,-630.94 211.16,-627.61 216.94,-636.49 221.21,-630.94"/>
</g>
<!-- 140168330499168 -->
<g id="node4" class="node">
<title>140168330499168</title>
<polygon fill="none" stroke="black" points="92,-415.5 92,-461.5 483,-461.5 483,-415.5 92,-415.5"/>
<text text-anchor="middle" x="114" y="-434.8" font-family="Times,serif" font-size="14.00">Add</text>
<polyline fill="none" stroke="black" points="136,-415.5 136,-461.5 "/>
<text text-anchor="middle" x="170" y="-446.3" font-family="Times,serif" font-size="14.00">input:</text>
<polyline fill="none" stroke="black" points="136,-438.5 204,-438.5 "/>
<text text-anchor="middle" x="170" y="-423.3" font-family="Times,serif" font-size="14.00">output:</text>
<polyline fill="none" stroke="black" points="204,-415.5 204,-461.5 "/>
<text text-anchor="middle" x="343.5" y="-446.3" font-family="Times,serif" font-size="14.00">[(None, None, 64), (None, None, 64)]</text>
<polyline fill="none" stroke="black" points="204,-438.5 483,-438.5 "/>
<text text-anchor="middle" x="343.5" y="-423.3" font-family="Times,serif" font-size="14.00">(None, None, 64)</text>
</g>
<!-- 140168330415504&#45;&gt;140168330499168 -->
<g id="edge3" class="edge">
<title>140168330415504&#45;&gt;140168330499168</title>
<path fill="none" stroke="black" d="M336.79,-664.47C351.27,-655.38 365.39,-643.32 373.5,-628 383.27,-609.54 375.96,-601.74 373.5,-581 369.02,-543.32 373.04,-530.53 353.5,-498 346.84,-486.92 337.4,-476.78 327.73,-468.18"/>
<polygon fill="black" stroke="black" points="329.87,-465.4 319.97,-461.61 325.34,-470.74 329.87,-465.4"/>
</g>
<!-- 140168330499888 -->
<g id="node3" class="node">
<title>140168330499888</title>
<polygon fill="none" stroke="black" points="63,-498.5 63,-544.5 344,-544.5 344,-498.5 63,-498.5"/>
<text text-anchor="middle" x="100.5" y="-517.8" font-family="Times,serif" font-size="14.00">Dropout</text>
<polyline fill="none" stroke="black" points="138,-498.5 138,-544.5 "/>
<text text-anchor="middle" x="172" y="-529.3" font-family="Times,serif" font-size="14.00">input:</text>
<polyline fill="none" stroke="black" points="138,-521.5 206,-521.5 "/>
<text text-anchor="middle" x="172" y="-506.3" font-family="Times,serif" font-size="14.00">output:</text>
<polyline fill="none" stroke="black" points="206,-498.5 206,-544.5 "/>
<text text-anchor="middle" x="275" y="-529.3" font-family="Times,serif" font-size="14.00">(None, None, 64)</text>
<polyline fill="none" stroke="black" points="206,-521.5 344,-521.5 "/>
<text text-anchor="middle" x="275" y="-506.3" font-family="Times,serif" font-size="14.00">(None, None, 64)</text>
</g>
<!-- 140168330498640&#45;&gt;140168330499888 -->
<g id="edge2" class="edge">
<title>140168330498640&#45;&gt;140168330499888</title>
<path fill="none" stroke="black" d="M188.24,-581.37C190.39,-573.06 192.88,-563.45 195.22,-554.43"/>
<polygon fill="black" stroke="black" points="198.65,-555.17 197.77,-544.61 191.87,-553.41 198.65,-555.17"/>
</g>
<!-- 140168330499888&#45;&gt;140168330499168 -->
<g id="edge4" class="edge">
<title>140168330499888&#45;&gt;140168330499168</title>
<path fill="none" stroke="black" d="M226.45,-498.37C235.99,-489.17 247.19,-478.37 257.38,-468.55"/>
<polygon fill="black" stroke="black" points="259.81,-471.07 264.57,-461.61 254.95,-466.03 259.81,-471.07"/>
</g>
<!-- 140168330415840 -->
<g id="node5" class="node">
<title>140168330415840</title>
<polygon fill="none" stroke="black" points="105.5,-332.5 105.5,-378.5 469.5,-378.5 469.5,-332.5 105.5,-332.5"/>
<text text-anchor="middle" x="184.5" y="-351.8" font-family="Times,serif" font-size="14.00">LayerNormalization</text>
<polyline fill="none" stroke="black" points="263.5,-332.5 263.5,-378.5 "/>
<text text-anchor="middle" x="297.5" y="-363.3" font-family="Times,serif" font-size="14.00">input:</text>
<polyline fill="none" stroke="black" points="263.5,-355.5 331.5,-355.5 "/>
<text text-anchor="middle" x="297.5" y="-340.3" font-family="Times,serif" font-size="14.00">output:</text>
<polyline fill="none" stroke="black" points="331.5,-332.5 331.5,-378.5 "/>
<text text-anchor="middle" x="400.5" y="-363.3" font-family="Times,serif" font-size="14.00">(None, None, 64)</text>
<polyline fill="none" stroke="black" points="331.5,-355.5 469.5,-355.5 "/>
<text text-anchor="middle" x="400.5" y="-340.3" font-family="Times,serif" font-size="14.00">(None, None, 64)</text>
</g>
<!-- 140168330499168&#45;&gt;140168330415840 -->
<g id="edge5" class="edge">
<title>140168330499168&#45;&gt;140168330415840</title>
<path fill="none" stroke="black" d="M287.5,-415.37C287.5,-407.15 287.5,-397.66 287.5,-388.73"/>
<polygon fill="black" stroke="black" points="291,-388.61 287.5,-378.61 284,-388.61 291,-388.61"/>
</g>
<!-- 140168330415648 -->
<g id="node6" class="node">
<title>140168330415648</title>
<polygon fill="#ccc" stroke="black" points="8,-249.5 8,-295.5 348,-295.5 348,-249.5 8,-249.5"/>
<text text-anchor="middle" x="75" y="-268.8" font-family="Times,serif" font-size="14.00">Feed-forward Network</text>
<polyline fill="none" stroke="black" points="142,-249.5 142,-295.5 "/>
<text text-anchor="middle" x="176" y="-280.3" font-family="Times,serif" font-size="14.00">input:</text>
<polyline fill="none" stroke="black" points="142,-272.5 210,-272.5 "/>
<text text-anchor="middle" x="176" y="-257.3" font-family="Times,serif" font-size="14.00">output:</text>
<polyline fill="none" stroke="black" points="210,-249.5 210,-295.5 "/>
<text text-anchor="middle" x="279" y="-280.3" font-family="Times,serif" font-size="14.00">(None, None, 64)</text>
<polyline fill="none" stroke="black" points="210,-272.5 348,-272.5 "/>
<text text-anchor="middle" x="279" y="-257.3" font-family="Times,serif" font-size="14.00">(None, None, 64)</text>
</g>
<!-- 140168330415840&#45;&gt;140168330415648 -->
<g id="edge6" class="edge">
<title>140168330415840&#45;&gt;140168330415648</title>
<path fill="none" stroke="black" d="M263.18,-332.37C253.08,-323.17 241.21,-312.37 230.42,-302.55"/>
<polygon fill="black" stroke="black" points="232.54,-299.75 222.79,-295.61 227.83,-304.93 232.54,-299.75"/>
</g>
<!-- 140168605496464 -->
<g id="node8" class="node">
<title>140168605496464</title>
<polygon fill="none" stroke="black" points="92,-83.5 92,-129.5 483,-129.5 483,-83.5 92,-83.5"/>
<text text-anchor="middle" x="114" y="-102.8" font-family="Times,serif" font-size="14.00">Add</text>
<polyline fill="none" stroke="black" points="136,-83.5 136,-129.5 "/>
<text text-anchor="middle" x="170" y="-114.3" font-family="Times,serif" font-size="14.00">input:</text>
<polyline fill="none" stroke="black" points="136,-106.5 204,-106.5 "/>
<text text-anchor="middle" x="170" y="-91.3" font-family="Times,serif" font-size="14.00">output:</text>
<polyline fill="none" stroke="black" points="204,-83.5 204,-129.5 "/>
<text text-anchor="middle" x="343.5" y="-114.3" font-family="Times,serif" font-size="14.00">[(None, None, 64), (None, None, 64)]</text>
<polyline fill="none" stroke="black" points="204,-106.5 483,-106.5 "/>
<text text-anchor="middle" x="343.5" y="-91.3" font-family="Times,serif" font-size="14.00">(None, None, 64)</text>
</g>
<!-- 140168330415840&#45;&gt;140168605496464 -->
<g id="edge8" class="edge">
<title>140168330415840&#45;&gt;140168605496464</title>
<path fill="none" stroke="black" d="M325.59,-332.35C338.16,-322.89 350.66,-310.63 357.5,-296 365.23,-279.46 360.84,-181.31 353.5,-166 348.12,-154.78 339.51,-144.79 330.26,-136.38"/>
<polygon fill="black" stroke="black" points="332.28,-133.5 322.39,-129.69 327.75,-138.84 332.28,-133.5"/>
</g>
<!-- 140168334160560 -->
<g id="node7" class="node">
<title>140168334160560</title>
<polygon fill="none" stroke="black" points="63,-166.5 63,-212.5 344,-212.5 344,-166.5 63,-166.5"/>
<text text-anchor="middle" x="100.5" y="-185.8" font-family="Times,serif" font-size="14.00">Dropout</text>
<polyline fill="none" stroke="black" points="138,-166.5 138,-212.5 "/>
<text text-anchor="middle" x="172" y="-197.3" font-family="Times,serif" font-size="14.00">input:</text>
<polyline fill="none" stroke="black" points="138,-189.5 206,-189.5 "/>
<text text-anchor="middle" x="172" y="-174.3" font-family="Times,serif" font-size="14.00">output:</text>
<polyline fill="none" stroke="black" points="206,-166.5 206,-212.5 "/>
<text text-anchor="middle" x="275" y="-197.3" font-family="Times,serif" font-size="14.00">(None, None, 64)</text>
<polyline fill="none" stroke="black" points="206,-189.5 344,-189.5 "/>
<text text-anchor="middle" x="275" y="-174.3" font-family="Times,serif" font-size="14.00">(None, None, 64)</text>
</g>
<!-- 140168330415648&#45;&gt;140168334160560 -->
<g id="edge7" class="edge">
<title>140168330415648&#45;&gt;140168334160560</title>
<path fill="none" stroke="black" d="M199.87,-249.37C200.37,-241.15 200.96,-231.66 201.51,-222.73"/>
<polygon fill="black" stroke="black" points="205.01,-222.8 202.14,-212.61 198.03,-222.37 205.01,-222.8"/>
</g>
<!-- 140168334160560&#45;&gt;140168605496464 -->
<g id="edge9" class="edge">
<title>140168334160560&#45;&gt;140168605496464</title>
<path fill="none" stroke="black" d="M226.45,-166.37C235.99,-157.17 247.19,-146.37 257.38,-136.55"/>
<polygon fill="black" stroke="black" points="259.81,-139.07 264.57,-129.61 254.95,-134.03 259.81,-139.07"/>
</g>
<!-- 140168332546208 -->
<g id="node9" class="node">
<title>140168332546208</title>
<polygon fill="none" stroke="black" points="105.5,-0.5 105.5,-46.5 469.5,-46.5 469.5,-0.5 105.5,-0.5"/>
<text text-anchor="middle" x="184.5" y="-19.8" font-family="Times,serif" font-size="14.00">LayerNormalization</text>
<polyline fill="none" stroke="black" points="263.5,-0.5 263.5,-46.5 "/>
<text text-anchor="middle" x="297.5" y="-31.3" font-family="Times,serif" font-size="14.00">input:</text>
<polyline fill="none" stroke="black" points="263.5,-23.5 331.5,-23.5 "/>
<text text-anchor="middle" x="297.5" y="-8.3" font-family="Times,serif" font-size="14.00">output:</text>
<polyline fill="none" stroke="black" points="331.5,-0.5 331.5,-46.5 "/>
<text text-anchor="middle" x="400.5" y="-31.3" font-family="Times,serif" font-size="14.00">(None, None, 64)</text>
<polyline fill="none" stroke="black" points="331.5,-23.5 469.5,-23.5 "/>
<text text-anchor="middle" x="400.5" y="-8.3" font-family="Times,serif" font-size="14.00">(None, None, 64)</text>
</g>
<!-- 140168605496464&#45;&gt;140168332546208 -->
<g id="edge10" class="edge">
<title>140168605496464&#45;&gt;140168332546208</title>
<path fill="none" stroke="black" d="M287.5,-83.37C287.5,-75.15 287.5,-65.66 287.5,-56.73"/>
<polygon fill="black" stroke="black" points="291,-56.61 287.5,-46.61 284,-56.61 291,-56.61"/>
</g>
</g>
</svg>
