<?xml version="1.0" encoding="UTF-8" standalone="no"?>
<!DOCTYPE svg PUBLIC "-//W3C//DTD SVG 1.1//EN"
 "http://www.w3.org/Graphics/SVG/1.1/DTD/svg11.dtd">
<!-- Generated by graphviz version 2.43.0 (0)
 -->
<!-- Title: G Pages: 1 -->
<svg width="400pt" height="405pt"
 viewBox="0.00 0.00 300.00 304.00" xmlns="http://www.w3.org/2000/svg" xmlns:xlink="http://www.w3.org/1999/xlink">
<g id="graph0" class="graph" transform="scale(0.75 0.75) rotate(0) translate(4 300)">
<title>G</title>
<polygon fill="white" stroke="transparent" points="-4,4 -4,-300 296,-300 296,4 -4,4"/>
<!-- 140302639249584 -->
<g id="node1" class="node">
<title>140302639249584</title>
<polygon fill="none" stroke="black" points="0,-249.5 0,-295.5 292,-295.5 292,-249.5 0,-249.5"/>
<text text-anchor="middle" x="47.5" y="-268.8" font-family="Times,serif" font-size="14.00">InputLayer</text>
<polyline fill="none" stroke="black" points="95,-249.5 95,-295.5 "/>
<text text-anchor="middle" x="129" y="-280.3" font-family="Times,serif" font-size="14.00">input:</text>
<polyline fill="none" stroke="black" points="95,-272.5 163,-272.5 "/>
<text text-anchor="middle" x="129" y="-257.3" font-family="Times,serif" font-size="14.00">output:</text>
<polyline fill="none" stroke="black" points="163,-249.5 163,-295.5 "/>
<text text-anchor="middle" x="227.5" y="-280.3" font-family="Times,serif" font-size="14.00">[(None, 50, 64)]</text>
<polyline fill="none" stroke="black" points="163,-272.5 292,-272.5 "/>
<text text-anchor="middle" x="227.5" y="-257.3" font-family="Times,serif" font-size="14.00">[(None, 50, 64)]</text>
</g>
<!-- 140302639108880 -->
<g id="node2" class="node">
<title>140302639108880</title>
<polygon fill="none" stroke="black" points="17.5,-166.5 17.5,-212.5 274.5,-212.5 274.5,-166.5 17.5,-166.5"/>
<text text-anchor="middle" x="48" y="-185.8" font-family="Times,serif" font-size="14.00">Dense</text>
<polyline fill="none" stroke="black" points="78.5,-166.5 78.5,-212.5 "/>
<text text-anchor="middle" x="112.5" y="-197.3" font-family="Times,serif" font-size="14.00">input:</text>
<polyline fill="none" stroke="black" points="78.5,-189.5 146.5,-189.5 "/>
<text text-anchor="middle" x="112.5" y="-174.3" font-family="Times,serif" font-size="14.00">output:</text>
<polyline fill="none" stroke="black" points="146.5,-166.5 146.5,-212.5 "/>
<text text-anchor="middle" x="210.5" y="-197.3" font-family="Times,serif" font-size="14.00">(None, 50, 64)</text>
<polyline fill="none" stroke="black" points="146.5,-189.5 274.5,-189.5 "/>
<text text-anchor="middle" x="210.5" y="-174.3" font-family="Times,serif" font-size="14.00">(None, 50, 128)</text>
</g>
<!-- 140302639249584&#45;&gt;140302639108880 -->
<g id="edge1" class="edge">
<title>140302639249584&#45;&gt;140302639108880</title>
<path fill="none" stroke="black" d="M146,-249.37C146,-241.15 146,-231.66 146,-222.73"/>
<polygon fill="black" stroke="black" points="149.5,-222.61 146,-212.61 142.5,-222.61 149.5,-222.61"/>
</g>
<!-- 140302639109648 -->
<g id="node3" class="node">
<title>140302639109648</title>
<polygon fill="none" stroke="black" points="17.5,-83.5 17.5,-129.5 274.5,-129.5 274.5,-83.5 17.5,-83.5"/>
<text text-anchor="middle" x="48" y="-102.8" font-family="Times,serif" font-size="14.00">Dense</text>
<polyline fill="none" stroke="black" points="78.5,-83.5 78.5,-129.5 "/>
<text text-anchor="middle" x="112.5" y="-114.3" font-family="Times,serif" font-size="14.00">input:</text>
<polyline fill="none" stroke="black" points="78.5,-106.5 146.5,-106.5 "/>
<text text-anchor="middle" x="112.5" y="-91.3" font-family="Times,serif" font-size="14.00">output:</text>
<polyline fill="none" stroke="black" points="146.5,-83.5 146.5,-129.5 "/>
<text text-anchor="middle" x="210.5" y="-114.3" font-family="Times,serif" font-size="14.00">(None, 50, 128)</text>
<polyline fill="none" stroke="black" points="146.5,-106.5 274.5,-106.5 "/>
<text text-anchor="middle" x="210.5" y="-91.3" font-family="Times,serif" font-size="14.00">(None, 50, 64)</text>
</g>
<!-- 140302639108880&#45;&gt;140302639109648 -->
<g id="edge2" class="edge">
<title>140302639108880&#45;&gt;140302639109648</title>
<path fill="none" stroke="black" d="M146,-166.37C146,-158.15 146,-148.66 146,-139.73"/>
<polygon fill="black" stroke="black" points="149.5,-139.61 146,-129.61 142.5,-139.61 149.5,-139.61"/>
</g>
<!-- 140302639250352 -->
<g id="node4" class="node">
<title>140302639250352</title>
<polygon fill="none" stroke="black" points="15,-0.5 15,-46.5 277,-46.5 277,-0.5 15,-0.5"/>
<text text-anchor="middle" x="52.5" y="-19.8" font-family="Times,serif" font-size="14.00">Dropout</text>
<polyline fill="none" stroke="black" points="90,-0.5 90,-46.5 "/>
<text text-anchor="middle" x="124" y="-31.3" font-family="Times,serif" font-size="14.00">input:</text>
<polyline fill="none" stroke="black" points="90,-23.5 158,-23.5 "/>
<text text-anchor="middle" x="124" y="-8.3" font-family="Times,serif" font-size="14.00">output:</text>
<polyline fill="none" stroke="black" points="158,-0.5 158,-46.5 "/>
<text text-anchor="middle" x="217.5" y="-31.3" font-family="Times,serif" font-size="14.00">(None, 50, 64)</text>
<polyline fill="none" stroke="black" points="158,-23.5 277,-23.5 "/>
<text text-anchor="middle" x="217.5" y="-8.3" font-family="Times,serif" font-size="14.00">(None, 50, 64)</text>
</g>
<!-- 140302639109648&#45;&gt;140302639250352 -->
<g id="edge3" class="edge">
<title>140302639109648&#45;&gt;140302639250352</title>
<path fill="none" stroke="black" d="M146,-83.37C146,-75.15 146,-65.66 146,-56.73"/>
<polygon fill="black" stroke="black" points="149.5,-56.61 146,-46.61 142.5,-56.61 149.5,-56.61"/>
</g>
</g>
</svg>
