<?xml version="1.0" encoding="UTF-8" standalone="no"?>
<!DOCTYPE svg PUBLIC "-//W3C//DTD SVG 1.1//EN"
 "http://www.w3.org/Graphics/SVG/1.1/DTD/svg11.dtd">
<!-- Generated by graphviz version 2.43.0 (0)
 -->
<!-- Title: G Pages: 1 -->
<svg width="481pt" height="627pt"
 viewBox="0.00 0.00 361.00 470.00" xmlns="http://www.w3.org/2000/svg" xmlns:xlink="http://www.w3.org/1999/xlink">
<g id="graph0" class="graph" transform="scale(0.75 0.75) rotate(0) translate(4 466)">
<title>G</title>
<polygon fill="white" stroke="transparent" points="-4,4 -4,-466 357,-466 357,4 -4,4"/>
<!-- 140302640077840 -->
<g id="node1" class="node">
<title>140302640077840</title>
<polygon fill="none" stroke="black" points="44,-415.5 44,-461.5 309,-461.5 309,-415.5 44,-415.5"/>
<text text-anchor="middle" x="91.5" y="-434.8" font-family="Times,serif" font-size="14.00">InputLayer</text>
<polyline fill="none" stroke="black" points="139,-415.5 139,-461.5 "/>
<text text-anchor="middle" x="173" y="-446.3" font-family="Times,serif" font-size="14.00">input:</text>
<polyline fill="none" stroke="black" points="139,-438.5 207,-438.5 "/>
<text text-anchor="middle" x="173" y="-423.3" font-family="Times,serif" font-size="14.00">output:</text>
<polyline fill="none" stroke="black" points="207,-415.5 207,-461.5 "/>
<text text-anchor="middle" x="258" y="-446.3" font-family="Times,serif" font-size="14.00">[(None, 50)]</text>
<polyline fill="none" stroke="black" points="207,-438.5 309,-438.5 "/>
<text text-anchor="middle" x="258" y="-423.3" font-family="Times,serif" font-size="14.00">[(None, 50)]</text>
</g>
<!-- 140302640077744 -->
<g id="node2" class="node">
<title>140302640077744</title>
<polygon fill="none" stroke="black" points="34,-332.5 34,-378.5 319,-378.5 319,-332.5 34,-332.5"/>
<text text-anchor="middle" x="83" y="-351.8" font-family="Times,serif" font-size="14.00">Embedding</text>
<polyline fill="none" stroke="black" points="132,-332.5 132,-378.5 "/>
<text text-anchor="middle" x="166" y="-363.3" font-family="Times,serif" font-size="14.00">input:</text>
<polyline fill="none" stroke="black" points="132,-355.5 200,-355.5 "/>
<text text-anchor="middle" x="166" y="-340.3" font-family="Times,serif" font-size="14.00">output:</text>
<polyline fill="none" stroke="black" points="200,-332.5 200,-378.5 "/>
<text text-anchor="middle" x="259.5" y="-363.3" font-family="Times,serif" font-size="14.00">(None, 50)</text>
<polyline fill="none" stroke="black" points="200,-355.5 319,-355.5 "/>
<text text-anchor="middle" x="259.5" y="-340.3" font-family="Times,serif" font-size="14.00">(None, 50, 64)</text>
</g>
<!-- 140302640077840&#45;&gt;140302640077744 -->
<g id="edge1" class="edge">
<title>140302640077840&#45;&gt;140302640077744</title>
<path fill="none" stroke="black" d="M176.5,-415.37C176.5,-407.15 176.5,-397.66 176.5,-388.73"/>
<polygon fill="black" stroke="black" points="180,-388.61 176.5,-378.61 173,-388.61 180,-388.61"/>
</g>
<!-- 140302639576976 -->
<g id="node3" class="node">
<title>140302639576976</title>
<polygon fill="#ccc" stroke="black" points="37,-249.5 37,-295.5 316,-295.5 316,-249.5 37,-249.5"/>
<text text-anchor="middle" x="83" y="-268.8" font-family="Times,serif" font-size="14.00">Mixer Layer</text>
<polyline fill="none" stroke="black" points="129,-249.5 129,-295.5 "/>
<text text-anchor="middle" x="163" y="-280.3" font-family="Times,serif" font-size="14.00">input:</text>
<polyline fill="none" stroke="black" points="129,-272.5 197,-272.5 "/>
<text text-anchor="middle" x="163" y="-257.3" font-family="Times,serif" font-size="14.00">output:</text>
<polyline fill="none" stroke="black" points="197,-249.5 197,-295.5 "/>
<text text-anchor="middle" x="256.5" y="-280.3" font-family="Times,serif" font-size="14.00">(None, 50, 64)</text>
<polyline fill="none" stroke="black" points="197,-272.5 316,-272.5 "/>
<text text-anchor="middle" x="256.5" y="-257.3" font-family="Times,serif" font-size="14.00">(None, 50, 64)</text>
</g>
<!-- 140302640077744&#45;&gt;140302639576976 -->
<g id="edge2" class="edge">
<title>140302640077744&#45;&gt;140302639576976</title>
<path fill="none" stroke="black" d="M176.5,-332.37C176.5,-324.15 176.5,-314.66 176.5,-305.73"/>
<polygon fill="black" stroke="black" points="180,-305.61 176.5,-295.61 173,-305.61 180,-305.61"/>
</g>
<!-- 140302639577168 -->
<g id="node4" class="node">
<title>140302639577168</title>
<polygon fill="none" stroke="black" points="4,-166.5 4,-212.5 349,-212.5 349,-166.5 4,-166.5"/>
<text text-anchor="middle" x="83" y="-185.8" font-family="Times,serif" font-size="14.00">LayerNormalization</text>
<polyline fill="none" stroke="black" points="162,-166.5 162,-212.5 "/>
<text text-anchor="middle" x="196" y="-197.3" font-family="Times,serif" font-size="14.00">input:</text>
<polyline fill="none" stroke="black" points="162,-189.5 230,-189.5 "/>
<text text-anchor="middle" x="196" y="-174.3" font-family="Times,serif" font-size="14.00">output:</text>
<polyline fill="none" stroke="black" points="230,-166.5 230,-212.5 "/>
<text text-anchor="middle" x="289.5" y="-197.3" font-family="Times,serif" font-size="14.00">(None, 50, 64)</text>
<polyline fill="none" stroke="black" points="230,-189.5 349,-189.5 "/>
<text text-anchor="middle" x="289.5" y="-174.3" font-family="Times,serif" font-size="14.00">(None, 50, 64)</text>
</g>
<!-- 140302639576976&#45;&gt;140302639577168 -->
<g id="edge3" class="edge">
<title>140302639576976&#45;&gt;140302639577168</title>
<path fill="none" stroke="black" d="M176.5,-249.37C176.5,-241.15 176.5,-231.66 176.5,-222.73"/>
<polygon fill="black" stroke="black" points="180,-222.61 176.5,-212.61 173,-222.61 180,-222.61"/>
</g>
<!-- 140302639577024 -->
<g id="node5" class="node">
<title>140302639577024</title>
<polygon fill="none" stroke="black" points="0,-83.5 0,-129.5 353,-129.5 353,-83.5 0,-83.5"/>
<text text-anchor="middle" x="83" y="-102.8" font-family="Times,serif" font-size="14.00">GlobalMaxPooling1D</text>
<polyline fill="none" stroke="black" points="166,-83.5 166,-129.5 "/>
<text text-anchor="middle" x="200" y="-114.3" font-family="Times,serif" font-size="14.00">input:</text>
<polyline fill="none" stroke="black" points="166,-106.5 234,-106.5 "/>
<text text-anchor="middle" x="200" y="-91.3" font-family="Times,serif" font-size="14.00">output:</text>
<polyline fill="none" stroke="black" points="234,-83.5 234,-129.5 "/>
<text text-anchor="middle" x="293.5" y="-114.3" font-family="Times,serif" font-size="14.00">(None, 50, 64)</text>
<polyline fill="none" stroke="black" points="234,-106.5 353,-106.5 "/>
<text text-anchor="middle" x="293.5" y="-91.3" font-family="Times,serif" font-size="14.00">(None, 64)</text>
</g>
<!-- 140302639577168&#45;&gt;140302639577024 -->
<g id="edge4" class="edge">
<title>140302639577168&#45;&gt;140302639577024</title>
<path fill="none" stroke="black" d="M176.5,-166.37C176.5,-158.15 176.5,-148.66 176.5,-139.73"/>
<polygon fill="black" stroke="black" points="180,-139.61 176.5,-129.61 173,-139.61 180,-139.61"/>
</g>
<!-- 140302638806448 -->
<g id="node6" class="node">
<title>140302638806448</title>
<polygon fill="none" stroke="black" points="66,-0.5 66,-46.5 287,-46.5 287,-0.5 66,-0.5"/>
<text text-anchor="middle" x="96.5" y="-19.8" font-family="Times,serif" font-size="14.00">Dense</text>
<polyline fill="none" stroke="black" points="127,-0.5 127,-46.5 "/>
<text text-anchor="middle" x="161" y="-31.3" font-family="Times,serif" font-size="14.00">input:</text>
<polyline fill="none" stroke="black" points="127,-23.5 195,-23.5 "/>
<text text-anchor="middle" x="161" y="-8.3" font-family="Times,serif" font-size="14.00">output:</text>
<polyline fill="none" stroke="black" points="195,-0.5 195,-46.5 "/>
<text text-anchor="middle" x="241" y="-31.3" font-family="Times,serif" font-size="14.00">(None, 64)</text>
<polyline fill="none" stroke="black" points="195,-23.5 287,-23.5 "/>
<text text-anchor="middle" x="241" y="-8.3" font-family="Times,serif" font-size="14.00">(None, 10)</text>
</g>
<!-- 140302639577024&#45;&gt;140302638806448 -->
<g id="edge5" class="edge">
<title>140302639577024&#45;&gt;140302638806448</title>
<path fill="none" stroke="black" d="M176.5,-83.37C176.5,-75.15 176.5,-65.66 176.5,-56.73"/>
<polygon fill="black" stroke="black" points="180,-56.61 176.5,-46.61 173,-56.61 180,-56.61"/>
</g>
</g>
</svg>
