<?xml version="1.0" encoding="UTF-8" standalone="no"?>
<!DOCTYPE svg PUBLIC "-//W3C//DTD SVG 1.1//EN"
 "http://www.w3.org/Graphics/SVG/1.1/DTD/svg11.dtd">
<!-- Generated by graphviz version 2.43.0 (0)
 -->
<!-- Title: G Pages: 1 -->
<svg width="630pt" height="959pt"
 viewBox="0.00 0.00 472.50 719.00" xmlns="http://www.w3.org/2000/svg" xmlns:xlink="http://www.w3.org/1999/xlink">
<g id="graph0" class="graph" transform="scale(0.75 0.75) rotate(0) translate(4 715)">
<title>G</title>
<polygon fill="white" stroke="transparent" points="-4,4 -4,-715 468.5,-715 468.5,4 -4,4"/>
<!-- 140302639577072 -->
<g id="node1" class="node">
<title>140302639577072</title>
<polygon fill="none" stroke="black" points="126.5,-664.5 126.5,-710.5 418.5,-710.5 418.5,-664.5 126.5,-664.5"/>
<text text-anchor="middle" x="174" y="-683.8" font-family="Times,serif" font-size="14.00">InputLayer</text>
<polyline fill="none" stroke="black" points="221.5,-664.5 221.5,-710.5 "/>
<text text-anchor="middle" x="255.5" y="-695.3" font-family="Times,serif" font-size="14.00">input:</text>
<polyline fill="none" stroke="black" points="221.5,-687.5 289.5,-687.5 "/>
<text text-anchor="middle" x="255.5" y="-672.3" font-family="Times,serif" font-size="14.00">output:</text>
<polyline fill="none" stroke="black" points="289.5,-664.5 289.5,-710.5 "/>
<text text-anchor="middle" x="354" y="-695.3" font-family="Times,serif" font-size="14.00">[(None, 50, 64)]</text>
<polyline fill="none" stroke="black" points="289.5,-687.5 418.5,-687.5 "/>
<text text-anchor="middle" x="354" y="-672.3" font-family="Times,serif" font-size="14.00">[(None, 50, 64)]</text>
</g>
<!-- 140302639577216 -->
<g id="node2" class="node">
<title>140302639577216</title>
<polygon fill="none" stroke="black" points="0,-581.5 0,-627.5 345,-627.5 345,-581.5 0,-581.5"/>
<text text-anchor="middle" x="79" y="-600.8" font-family="Times,serif" font-size="14.00">LayerNormalization</text>
<polyline fill="none" stroke="black" points="158,-581.5 158,-627.5 "/>
<text text-anchor="middle" x="192" y="-612.3" font-family="Times,serif" font-size="14.00">input:</text>
<polyline fill="none" stroke="black" points="158,-604.5 226,-604.5 "/>
<text text-anchor="middle" x="192" y="-589.3" font-family="Times,serif" font-size="14.00">output:</text>
<polyline fill="none" stroke="black" points="226,-581.5 226,-627.5 "/>
<text text-anchor="middle" x="285.5" y="-612.3" font-family="Times,serif" font-size="14.00">(None, 50, 64)</text>
<polyline fill="none" stroke="black" points="226,-604.5 345,-604.5 "/>
<text text-anchor="middle" x="285.5" y="-589.3" font-family="Times,serif" font-size="14.00">(None, 50, 64)</text>
</g>
<!-- 140302639577072&#45;&gt;140302639577216 -->
<g id="edge1" class="edge">
<title>140302639577072&#45;&gt;140302639577216</title>
<path fill="none" stroke="black" d="M245.17,-664.37C233.6,-654.99 219.97,-643.95 207.66,-633.98"/>
<polygon fill="black" stroke="black" points="209.77,-631.18 199.79,-627.61 205.36,-636.62 209.77,-631.18"/>
</g>
<!-- 140302639209152 -->
<g id="node6" class="node">
<title>140302639209152</title>
<polygon fill="none" stroke="black" points="112.5,-249.5 112.5,-295.5 464.5,-295.5 464.5,-249.5 112.5,-249.5"/>
<text text-anchor="middle" x="134.5" y="-268.8" font-family="Times,serif" font-size="14.00">Add</text>
<polyline fill="none" stroke="black" points="156.5,-249.5 156.5,-295.5 "/>
<text text-anchor="middle" x="190.5" y="-280.3" font-family="Times,serif" font-size="14.00">input:</text>
<polyline fill="none" stroke="black" points="156.5,-272.5 224.5,-272.5 "/>
<text text-anchor="middle" x="190.5" y="-257.3" font-family="Times,serif" font-size="14.00">output:</text>
<polyline fill="none" stroke="black" points="224.5,-249.5 224.5,-295.5 "/>
<text text-anchor="middle" x="344.5" y="-280.3" font-family="Times,serif" font-size="14.00">[(None, 50, 64), (None, 50, 64)]</text>
<polyline fill="none" stroke="black" points="224.5,-272.5 464.5,-272.5 "/>
<text text-anchor="middle" x="344.5" y="-257.3" font-family="Times,serif" font-size="14.00">(None, 50, 64)</text>
</g>
<!-- 140302639577072&#45;&gt;140302639209152 -->
<g id="edge6" class="edge">
<title>140302639577072&#45;&gt;140302639209152</title>
<path fill="none" stroke="black" d="M315.36,-664.44C329.59,-655.06 344.17,-642.83 353.5,-628 378.88,-587.68 372.5,-570.14 372.5,-522.5 372.5,-522.5 372.5,-522.5 372.5,-437.5 372.5,-389.51 372.95,-373.87 349.5,-332 343.45,-321.2 334.76,-311.16 325.83,-302.56"/>
<polygon fill="black" stroke="black" points="328.07,-299.86 318.33,-295.69 323.34,-305.02 328.07,-299.86"/>
</g>
<!-- 140302639100832 -->
<g id="node3" class="node">
<title>140302639100832</title>
<polygon fill="none" stroke="black" points="48.5,-498.5 48.5,-544.5 312.5,-544.5 312.5,-498.5 48.5,-498.5"/>
<text text-anchor="middle" x="87" y="-517.8" font-family="Times,serif" font-size="14.00">Permute</text>
<polyline fill="none" stroke="black" points="125.5,-498.5 125.5,-544.5 "/>
<text text-anchor="middle" x="159.5" y="-529.3" font-family="Times,serif" font-size="14.00">input:</text>
<polyline fill="none" stroke="black" points="125.5,-521.5 193.5,-521.5 "/>
<text text-anchor="middle" x="159.5" y="-506.3" font-family="Times,serif" font-size="14.00">output:</text>
<polyline fill="none" stroke="black" points="193.5,-498.5 193.5,-544.5 "/>
<text text-anchor="middle" x="253" y="-529.3" font-family="Times,serif" font-size="14.00">(None, 50, 64)</text>
<polyline fill="none" stroke="black" points="193.5,-521.5 312.5,-521.5 "/>
<text text-anchor="middle" x="253" y="-506.3" font-family="Times,serif" font-size="14.00">(None, 64, 50)</text>
</g>
<!-- 140302639577216&#45;&gt;140302639100832 -->
<g id="edge2" class="edge">
<title>140302639577216&#45;&gt;140302639100832</title>
<path fill="none" stroke="black" d="M174.69,-581.37C175.5,-573.15 176.44,-563.66 177.32,-554.73"/>
<polygon fill="black" stroke="black" points="180.82,-554.9 178.32,-544.61 173.85,-554.21 180.82,-554.9"/>
</g>
<!-- 140302639578752 -->
<g id="node4" class="node">
<title>140302639578752</title>
<polygon fill="#ccc" stroke="black" points="56.5,-415.5 56.5,-461.5 336.5,-461.5 336.5,-415.5 56.5,-415.5"/>
<text text-anchor="middle" x="103" y="-434.8" font-family="Times,serif" font-size="14.00">Token Mixing</text>
<polyline fill="none" stroke="black" points="149.5,-415.5 149.5,-461.5 "/>
<text text-anchor="middle" x="183.5" y="-446.3" font-family="Times,serif" font-size="14.00">input:</text>
<polyline fill="none" stroke="black" points="149.5,-438.5 217.5,-438.5 "/>
<text text-anchor="middle" x="183.5" y="-423.3" font-family="Times,serif" font-size="14.00">output:</text>
<polyline fill="none" stroke="black" points="217.5,-415.5 217.5,-461.5 "/>
<text text-anchor="middle" x="277" y="-446.3" font-family="Times,serif" font-size="14.00">(None, 64, 50)</text>
<polyline fill="none" stroke="black" points="217.5,-438.5 336.5,-438.5 "/>
<text text-anchor="middle" x="277" y="-423.3" font-family="Times,serif" font-size="14.00">(None, 64, 50)</text>
</g>
<!-- 140302639100832&#45;&gt;140302639578752 -->
<g id="edge3" class="edge">
<title>140302639100832&#45;&gt;140302639578752</title>
<path fill="none" stroke="black" d="M184.87,-498.37C186.51,-490.06 188.41,-480.45 190.19,-471.43"/>
<polygon fill="black" stroke="black" points="193.63,-472.1 192.13,-461.61 186.76,-470.74 193.63,-472.1"/>
</g>
<!-- 140302639575920 -->
<g id="node5" class="node">
<title>140302639575920</title>
<polygon fill="none" stroke="black" points="76.5,-332.5 76.5,-378.5 340.5,-378.5 340.5,-332.5 76.5,-332.5"/>
<text text-anchor="middle" x="115" y="-351.8" font-family="Times,serif" font-size="14.00">Permute</text>
<polyline fill="none" stroke="black" points="153.5,-332.5 153.5,-378.5 "/>
<text text-anchor="middle" x="187.5" y="-363.3" font-family="Times,serif" font-size="14.00">input:</text>
<polyline fill="none" stroke="black" points="153.5,-355.5 221.5,-355.5 "/>
<text text-anchor="middle" x="187.5" y="-340.3" font-family="Times,serif" font-size="14.00">output:</text>
<polyline fill="none" stroke="black" points="221.5,-332.5 221.5,-378.5 "/>
<text text-anchor="middle" x="281" y="-363.3" font-family="Times,serif" font-size="14.00">(None, 64, 50)</text>
<polyline fill="none" stroke="black" points="221.5,-355.5 340.5,-355.5 "/>
<text text-anchor="middle" x="281" y="-340.3" font-family="Times,serif" font-size="14.00">(None, 50, 64)</text>
</g>
<!-- 140302639578752&#45;&gt;140302639575920 -->
<g id="edge4" class="edge">
<title>140302639578752&#45;&gt;140302639575920</title>
<path fill="none" stroke="black" d="M199.78,-415.37C201,-407.15 202.4,-397.66 203.73,-388.73"/>
<polygon fill="black" stroke="black" points="207.22,-389.01 205.22,-378.61 200.3,-387.99 207.22,-389.01"/>
</g>
<!-- 140302639575920&#45;&gt;140302639209152 -->
<g id="edge5" class="edge">
<title>140302639575920&#45;&gt;140302639209152</title>
<path fill="none" stroke="black" d="M230.36,-332.37C239.36,-323.26 249.9,-312.58 259.53,-302.83"/>
<polygon fill="black" stroke="black" points="262.13,-305.18 266.67,-295.61 257.15,-300.26 262.13,-305.18"/>
</g>
<!-- 140302639743520 -->
<g id="node7" class="node">
<title>140302639743520</title>
<polygon fill="none" stroke="black" points="16,-166.5 16,-212.5 361,-212.5 361,-166.5 16,-166.5"/>
<text text-anchor="middle" x="95" y="-185.8" font-family="Times,serif" font-size="14.00">LayerNormalization</text>
<polyline fill="none" stroke="black" points="174,-166.5 174,-212.5 "/>
<text text-anchor="middle" x="208" y="-197.3" font-family="Times,serif" font-size="14.00">input:</text>
<polyline fill="none" stroke="black" points="174,-189.5 242,-189.5 "/>
<text text-anchor="middle" x="208" y="-174.3" font-family="Times,serif" font-size="14.00">output:</text>
<polyline fill="none" stroke="black" points="242,-166.5 242,-212.5 "/>
<text text-anchor="middle" x="301.5" y="-197.3" font-family="Times,serif" font-size="14.00">(None, 50, 64)</text>
<polyline fill="none" stroke="black" points="242,-189.5 361,-189.5 "/>
<text text-anchor="middle" x="301.5" y="-174.3" font-family="Times,serif" font-size="14.00">(None, 50, 64)</text>
</g>
<!-- 140302639209152&#45;&gt;140302639743520 -->
<g id="edge7" class="edge">
<title>140302639209152&#45;&gt;140302639743520</title>
<path fill="none" stroke="black" d="M261.17,-249.37C249.6,-239.99 235.97,-228.95 223.66,-218.98"/>
<polygon fill="black" stroke="black" points="225.77,-216.18 215.79,-212.61 221.36,-221.62 225.77,-216.18"/>
</g>
<!-- 140296717616800 -->
<g id="node9" class="node">
<title>140296717616800</title>
<polygon fill="none" stroke="black" points="112.5,-0.5 112.5,-46.5 464.5,-46.5 464.5,-0.5 112.5,-0.5"/>
<text text-anchor="middle" x="134.5" y="-19.8" font-family="Times,serif" font-size="14.00">Add</text>
<polyline fill="none" stroke="black" points="156.5,-0.5 156.5,-46.5 "/>
<text text-anchor="middle" x="190.5" y="-31.3" font-family="Times,serif" font-size="14.00">input:</text>
<polyline fill="none" stroke="black" points="156.5,-23.5 224.5,-23.5 "/>
<text text-anchor="middle" x="190.5" y="-8.3" font-family="Times,serif" font-size="14.00">output:</text>
<polyline fill="none" stroke="black" points="224.5,-0.5 224.5,-46.5 "/>
<text text-anchor="middle" x="344.5" y="-31.3" font-family="Times,serif" font-size="14.00">[(None, 50, 64), (None, 50, 64)]</text>
<polyline fill="none" stroke="black" points="224.5,-23.5 464.5,-23.5 "/>
<text text-anchor="middle" x="344.5" y="-8.3" font-family="Times,serif" font-size="14.00">(None, 50, 64)</text>
</g>
<!-- 140302639209152&#45;&gt;140296717616800 -->
<g id="edge10" class="edge">
<title>140302639209152&#45;&gt;140296717616800</title>
<path fill="none" stroke="black" d="M334.13,-249.45C348.08,-240.26 361.76,-228.14 369.5,-213 379.01,-194.4 371.49,-186.79 369.5,-166 365.93,-128.6 371.98,-115.71 353.5,-83 347.2,-71.84 337.98,-61.68 328.46,-53.07"/>
<polygon fill="black" stroke="black" points="330.68,-50.36 320.81,-46.51 326.12,-55.68 330.68,-50.36"/>
</g>
<!-- 140302639209824 -->
<g id="node8" class="node">
<title>140302639209824</title>
<polygon fill="#ccc" stroke="black" points="52,-83.5 52,-129.5 344.5,-129.5 344.5,-83.5 52,-83.5"/>
<text text-anchor="middle" x="104" y="-102.8" font-family="Times,serif" font-size="14.00">Channel Mixing</text>
<polyline fill="none" stroke="black" points="157.5,-83.5 157.5,-129.5 "/>
<text text-anchor="middle" x="191.5" y="-114.3" font-family="Times,serif" font-size="14.00">input:</text>
<polyline fill="none" stroke="black" points="157.5,-106.5 225.5,-106.5 "/>
<text text-anchor="middle" x="191.5" y="-91.3" font-family="Times,serif" font-size="14.00">output:</text>
<polyline fill="none" stroke="black" points="225.5,-83.5 225.5,-129.5 "/>
<text text-anchor="middle" x="285" y="-114.3" font-family="Times,serif" font-size="14.00">(None, 50, 64)</text>
<polyline fill="none" stroke="black" points="225.5,-106.5 344.5,-106.5 "/>
<text text-anchor="middle" x="285" y="-91.3" font-family="Times,serif" font-size="14.00">(None, 50, 64)</text>
</g>
<!-- 140302639743520&#45;&gt;140302639209824 -->
<g id="edge8" class="edge">
<title>140302639743520&#45;&gt;140302639209824</title>
<path fill="none" stroke="black" d="M192.87,-166.37C194.51,-158.06 196.41,-148.45 198.19,-139.43"/>
<polygon fill="black" stroke="black" points="201.63,-140.1 200.13,-129.61 194.76,-138.74 201.63,-140.1"/>
</g>
<!-- 140302639209824&#45;&gt;140296717616800 -->
<g id="edge9" class="edge">
<title>140302639209824&#45;&gt;140296717616800</title>
<path fill="none" stroke="black" d="M227.45,-83.37C236.99,-74.17 248.19,-63.37 258.38,-53.55"/>
<polygon fill="black" stroke="black" points="260.81,-56.07 265.57,-46.61 255.95,-51.03 260.81,-56.07"/>
</g>
</g>
</svg>
