<?xml version="1.0" encoding="UTF-8" standalone="no"?>
<!DOCTYPE svg PUBLIC "-//W3C//DTD SVG 1.1//EN"
 "http://www.w3.org/Graphics/SVG/1.1/DTD/svg11.dtd">
<!-- Generated by graphviz version 2.43.0 (0)
 -->
<!-- Title: G Pages: 1 -->
<svg width="427pt" height="295pt"
 viewBox="0.00 0.00 320.00 221.00" xmlns="http://www.w3.org/2000/svg" xmlns:xlink="http://www.w3.org/1999/xlink">
<g id="graph0" class="graph" transform="scale(0.75 0.75) rotate(0) translate(4 217)">
<title>G</title>
<polygon fill="white" stroke="transparent" points="-4,4 -4,-217 316,-217 316,4 -4,4"/>
<!-- 140168330543840 -->
<g id="node1" class="node">
<title>140168330543840</title>
<polygon fill="none" stroke="black" points="0,-166.5 0,-212.5 312,-212.5 312,-166.5 0,-166.5"/>
<text text-anchor="middle" x="47.5" y="-185.8" font-family="Times,serif" font-size="14.00">InputLayer</text>
<polyline fill="none" stroke="black" points="95,-166.5 95,-212.5 "/>
<text text-anchor="middle" x="129" y="-197.3" font-family="Times,serif" font-size="14.00">input:</text>
<polyline fill="none" stroke="black" points="95,-189.5 163,-189.5 "/>
<text text-anchor="middle" x="129" y="-174.3" font-family="Times,serif" font-size="14.00">output:</text>
<polyline fill="none" stroke="black" points="163,-166.5 163,-212.5 "/>
<text text-anchor="middle" x="237.5" y="-197.3" font-family="Times,serif" font-size="14.00">[(None, None, 64)]</text>
<polyline fill="none" stroke="black" points="163,-189.5 312,-189.5 "/>
<text text-anchor="middle" x="237.5" y="-174.3" font-family="Times,serif" font-size="14.00">[(None, None, 64)]</text>
</g>
<!-- 140168330544704 -->
<g id="node2" class="node">
<title>140168330544704</title>
<polygon fill="none" stroke="black" points="22.5,-83.5 22.5,-129.5 289.5,-129.5 289.5,-83.5 22.5,-83.5"/>
<text text-anchor="middle" x="53" y="-102.8" font-family="Times,serif" font-size="14.00">Dense</text>
<polyline fill="none" stroke="black" points="83.5,-83.5 83.5,-129.5 "/>
<text text-anchor="middle" x="117.5" y="-114.3" font-family="Times,serif" font-size="14.00">input:</text>
<polyline fill="none" stroke="black" points="83.5,-106.5 151.5,-106.5 "/>
<text text-anchor="middle" x="117.5" y="-91.3" font-family="Times,serif" font-size="14.00">output:</text>
<polyline fill="none" stroke="black" points="151.5,-83.5 151.5,-129.5 "/>
<text text-anchor="middle" x="220.5" y="-114.3" font-family="Times,serif" font-size="14.00">(None, None, 64)</text>
<polyline fill="none" stroke="black" points="151.5,-106.5 289.5,-106.5 "/>
<text text-anchor="middle" x="220.5" y="-91.3" font-family="Times,serif" font-size="14.00">(None, None, 64)</text>
</g>
<!-- 140168330543840&#45;&gt;140168330544704 -->
<g id="edge1" class="edge">
<title>140168330543840&#45;&gt;140168330544704</title>
<path fill="none" stroke="black" d="M156,-166.37C156,-158.15 156,-148.66 156,-139.73"/>
<polygon fill="black" stroke="black" points="159.5,-139.61 156,-129.61 152.5,-139.61 159.5,-139.61"/>
</g>
<!-- 140168334434064 -->
<g id="node3" class="node">
<title>140168334434064</title>
<polygon fill="none" stroke="black" points="22.5,-0.5 22.5,-46.5 289.5,-46.5 289.5,-0.5 22.5,-0.5"/>
<text text-anchor="middle" x="53" y="-19.8" font-family="Times,serif" font-size="14.00">Dense</text>
<polyline fill="none" stroke="black" points="83.5,-0.5 83.5,-46.5 "/>
<text text-anchor="middle" x="117.5" y="-31.3" font-family="Times,serif" font-size="14.00">input:</text>
<polyline fill="none" stroke="black" points="83.5,-23.5 151.5,-23.5 "/>
<text text-anchor="middle" x="117.5" y="-8.3" font-family="Times,serif" font-size="14.00">output:</text>
<polyline fill="none" stroke="black" points="151.5,-0.5 151.5,-46.5 "/>
<text text-anchor="middle" x="220.5" y="-31.3" font-family="Times,serif" font-size="14.00">(None, None, 64)</text>
<polyline fill="none" stroke="black" points="151.5,-23.5 289.5,-23.5 "/>
<text text-anchor="middle" x="220.5" y="-8.3" font-family="Times,serif" font-size="14.00">(None, None, 64)</text>
</g>
<!-- 140168330544704&#45;&gt;140168334434064 -->
<g id="edge2" class="edge">
<title>140168330544704&#45;&gt;140168334434064</title>
<path fill="none" stroke="black" d="M156,-83.37C156,-75.15 156,-65.66 156,-56.73"/>
<polygon fill="black" stroke="black" points="159.5,-56.61 156,-46.61 152.5,-56.61 159.5,-56.61"/>
</g>
</g>
</svg>
