<?xml version="1.0" encoding="UTF-8" standalone="no"?>
<!DOCTYPE svg PUBLIC "-//W3C//DTD SVG 1.1//EN"
 "http://www.w3.org/Graphics/SVG/1.1/DTD/svg11.dtd">
<!-- Generated by graphviz version 2.43.0 (0)
 -->
<!-- Title: G Pages: 1 -->
<svg width="416pt" height="627pt"
 viewBox="0.00 0.00 312.00 470.00" xmlns="http://www.w3.org/2000/svg" xmlns:xlink="http://www.w3.org/1999/xlink">
<g id="graph0" class="graph" transform="scale(0.75 0.75) rotate(0) translate(4 466)">
<title>G</title>
<polygon fill="white" stroke="transparent" points="-4,4 -4,-466 308,-466 308,4 -4,4"/>
<!-- 140164070131840 -->
<g id="node1" class="node">
<title>140164070131840</title>
<polygon fill="none" stroke="black" points="9.5,-415.5 9.5,-461.5 294.5,-461.5 294.5,-415.5 9.5,-415.5"/>
<text text-anchor="middle" x="57" y="-434.8" font-family="Times,serif" font-size="14.00">InputLayer</text>
<polyline fill="none" stroke="black" points="104.5,-415.5 104.5,-461.5 "/>
<text text-anchor="middle" x="138.5" y="-446.3" font-family="Times,serif" font-size="14.00">input:</text>
<polyline fill="none" stroke="black" points="104.5,-438.5 172.5,-438.5 "/>
<text text-anchor="middle" x="138.5" y="-423.3" font-family="Times,serif" font-size="14.00">output:</text>
<polyline fill="none" stroke="black" points="172.5,-415.5 172.5,-461.5 "/>
<text text-anchor="middle" x="233.5" y="-446.3" font-family="Times,serif" font-size="14.00">[(None, None)]</text>
<polyline fill="none" stroke="black" points="172.5,-438.5 294.5,-438.5 "/>
<text text-anchor="middle" x="233.5" y="-423.3" font-family="Times,serif" font-size="14.00">[(None, None)]</text>
</g>
<!-- 140164070132128 -->
<g id="node2" class="node">
<title>140164070132128</title>
<polygon fill="none" stroke="black" points="0,-332.5 0,-378.5 304,-378.5 304,-332.5 0,-332.5"/>
<text text-anchor="middle" x="49" y="-351.8" font-family="Times,serif" font-size="14.00">Embedding</text>
<polyline fill="none" stroke="black" points="98,-332.5 98,-378.5 "/>
<text text-anchor="middle" x="132" y="-363.3" font-family="Times,serif" font-size="14.00">input:</text>
<polyline fill="none" stroke="black" points="98,-355.5 166,-355.5 "/>
<text text-anchor="middle" x="132" y="-340.3" font-family="Times,serif" font-size="14.00">output:</text>
<polyline fill="none" stroke="black" points="166,-332.5 166,-378.5 "/>
<text text-anchor="middle" x="235" y="-363.3" font-family="Times,serif" font-size="14.00">(None, None)</text>
<polyline fill="none" stroke="black" points="166,-355.5 304,-355.5 "/>
<text text-anchor="middle" x="235" y="-340.3" font-family="Times,serif" font-size="14.00">(None, None, 64)</text>
</g>
<!-- 140164070131840&#45;&gt;140164070132128 -->
<g id="edge1" class="edge">
<title>140164070131840&#45;&gt;140164070132128</title>
<path fill="none" stroke="black" d="M152,-415.37C152,-407.15 152,-397.66 152,-388.73"/>
<polygon fill="black" stroke="black" points="155.5,-388.61 152,-378.61 148.5,-388.61 155.5,-388.61"/>
</g>
<!-- 140164070133664 -->
<g id="node3" class="node">
<title>140164070133664</title>
<polygon fill="none" stroke="black" points="19.5,-249.5 19.5,-295.5 284.5,-295.5 284.5,-249.5 19.5,-249.5"/>
<text text-anchor="middle" x="49" y="-268.8" font-family="Times,serif" font-size="14.00">LSTM</text>
<polyline fill="none" stroke="black" points="78.5,-249.5 78.5,-295.5 "/>
<text text-anchor="middle" x="112.5" y="-280.3" font-family="Times,serif" font-size="14.00">input:</text>
<polyline fill="none" stroke="black" points="78.5,-272.5 146.5,-272.5 "/>
<text text-anchor="middle" x="112.5" y="-257.3" font-family="Times,serif" font-size="14.00">output:</text>
<polyline fill="none" stroke="black" points="146.5,-249.5 146.5,-295.5 "/>
<text text-anchor="middle" x="215.5" y="-280.3" font-family="Times,serif" font-size="14.00">(None, None, 64)</text>
<polyline fill="none" stroke="black" points="146.5,-272.5 284.5,-272.5 "/>
<text text-anchor="middle" x="215.5" y="-257.3" font-family="Times,serif" font-size="14.00">(None, 64)</text>
</g>
<!-- 140164070132128&#45;&gt;140164070133664 -->
<g id="edge2" class="edge">
<title>140164070132128&#45;&gt;140164070133664</title>
<path fill="none" stroke="black" d="M152,-332.37C152,-324.15 152,-314.66 152,-305.73"/>
<polygon fill="black" stroke="black" points="155.5,-305.61 152,-295.61 148.5,-305.61 155.5,-305.61"/>
</g>
<!-- 140164070606256 -->
<g id="node4" class="node">
<title>140164070606256</title>
<polygon fill="none" stroke="black" points="34.5,-166.5 34.5,-212.5 269.5,-212.5 269.5,-166.5 34.5,-166.5"/>
<text text-anchor="middle" x="72" y="-185.8" font-family="Times,serif" font-size="14.00">Dropout</text>
<polyline fill="none" stroke="black" points="109.5,-166.5 109.5,-212.5 "/>
<text text-anchor="middle" x="143.5" y="-197.3" font-family="Times,serif" font-size="14.00">input:</text>
<polyline fill="none" stroke="black" points="109.5,-189.5 177.5,-189.5 "/>
<text text-anchor="middle" x="143.5" y="-174.3" font-family="Times,serif" font-size="14.00">output:</text>
<polyline fill="none" stroke="black" points="177.5,-166.5 177.5,-212.5 "/>
<text text-anchor="middle" x="223.5" y="-197.3" font-family="Times,serif" font-size="14.00">(None, 64)</text>
<polyline fill="none" stroke="black" points="177.5,-189.5 269.5,-189.5 "/>
<text text-anchor="middle" x="223.5" y="-174.3" font-family="Times,serif" font-size="14.00">(None, 64)</text>
</g>
<!-- 140164070133664&#45;&gt;140164070606256 -->
<g id="edge3" class="edge">
<title>140164070133664&#45;&gt;140164070606256</title>
<path fill="none" stroke="black" d="M152,-249.37C152,-241.15 152,-231.66 152,-222.73"/>
<polygon fill="black" stroke="black" points="155.5,-222.61 152,-212.61 148.5,-222.61 155.5,-222.61"/>
</g>
<!-- 140164070606832 -->
<g id="node5" class="node">
<title>140164070606832</title>
<polygon fill="none" stroke="black" points="37,-83.5 37,-129.5 267,-129.5 267,-83.5 37,-83.5"/>
<text text-anchor="middle" x="67.5" y="-102.8" font-family="Times,serif" font-size="14.00">Dense</text>
<polyline fill="none" stroke="black" points="98,-83.5 98,-129.5 "/>
<text text-anchor="middle" x="132" y="-114.3" font-family="Times,serif" font-size="14.00">input:</text>
<polyline fill="none" stroke="black" points="98,-106.5 166,-106.5 "/>
<text text-anchor="middle" x="132" y="-91.3" font-family="Times,serif" font-size="14.00">output:</text>
<polyline fill="none" stroke="black" points="166,-83.5 166,-129.5 "/>
<text text-anchor="middle" x="216.5" y="-114.3" font-family="Times,serif" font-size="14.00">(None, 64)</text>
<polyline fill="none" stroke="black" points="166,-106.5 267,-106.5 "/>
<text text-anchor="middle" x="216.5" y="-91.3" font-family="Times,serif" font-size="14.00">(None, 100)</text>
</g>
<!-- 140164070606256&#45;&gt;140164070606832 -->
<g id="edge4" class="edge">
<title>140164070606256&#45;&gt;140164070606832</title>
<path fill="none" stroke="black" d="M152,-166.37C152,-158.15 152,-148.66 152,-139.73"/>
<polygon fill="black" stroke="black" points="155.5,-139.61 152,-129.61 148.5,-139.61 155.5,-139.61"/>
</g>
<!-- 140164070607360 -->
<g id="node6" class="node">
<title>140164070607360</title>
<polygon fill="none" stroke="black" points="37,-0.5 37,-46.5 267,-46.5 267,-0.5 37,-0.5"/>
<text text-anchor="middle" x="67.5" y="-19.8" font-family="Times,serif" font-size="14.00">Dense</text>
<polyline fill="none" stroke="black" points="98,-0.5 98,-46.5 "/>
<text text-anchor="middle" x="132" y="-31.3" font-family="Times,serif" font-size="14.00">input:</text>
<polyline fill="none" stroke="black" points="98,-23.5 166,-23.5 "/>
<text text-anchor="middle" x="132" y="-8.3" font-family="Times,serif" font-size="14.00">output:</text>
<polyline fill="none" stroke="black" points="166,-0.5 166,-46.5 "/>
<text text-anchor="middle" x="216.5" y="-31.3" font-family="Times,serif" font-size="14.00">(None, 100)</text>
<polyline fill="none" stroke="black" points="166,-23.5 267,-23.5 "/>
<text text-anchor="middle" x="216.5" y="-8.3" font-family="Times,serif" font-size="14.00">(None, 10)</text>
</g>
<!-- 140164070606832&#45;&gt;140164070607360 -->
<g id="edge5" class="edge">
<title>140164070606832&#45;&gt;140164070607360</title>
<path fill="none" stroke="black" d="M152,-83.37C152,-75.15 152,-65.66 152,-56.73"/>
<polygon fill="black" stroke="black" points="155.5,-56.61 152,-46.61 148.5,-56.61 155.5,-56.61"/>
</g>
</g>
</svg>
